<svg xmlns="http://www.w3.org/2000/svg" width="815px" height="334.40625px" class="sequence simple"><desc></desc><defs><marker viewBox="0 0 5 5" markerWidth="5" markerHeight="5" orient="auto" refX="5" refY="2.5" id="markerArrowBlock"><path d="M 0 0 L 5 2.5 L 0 5 z"/></marker><marker viewBox="0 0 9.6 16" markerWidth="4" markerHeight="16" orient="auto" refX="9.6" refY="8" id="markerArrowOpen"><path d="M 9.6,8 1.92,16 0,13.7 5.76,8 0,2.286 1.92,0 9.6,8 z"/></marker></defs><g class="title"/><g class="actor"><rect x="181" y="20" width="76" height="36" stroke="#000000" fill="#ffffff" style="stroke-width: 2;"/><text x="191" y="44" style="font-size: 16px; font-family: &quot;Andale Mono&quot;, monospace;"><tspan x="191">browser</tspan></text></g><g class="actor"><rect x="181" y="278.40625" width="76" height="36" stroke="#000000" fill="#ffffff" style="stroke-width: 2;"/><text x="191" y="302.40625" style="font-size: 16px; font-family: &quot;Andale Mono&quot;, monospace;"><tspan x="191">browser</tspan></text></g><line x1="219" x2="219" y1="56" y2="278.40625" stroke="#000000" fill="none" style="stroke-width: 2;"/><g class="actor"><rect x="717" y="20" width="68" height="36" stroke="#000000" fill="#ffffff" style="stroke-width: 2;"/><text x="727" y="44" style="font-size: 16px; font-family: &quot;Andale Mono&quot;, monospace;"><tspan x="727">server</tspan></text></g><g class="actor"><rect x="717" y="278.40625" width="68" height="36" stroke="#000000" fill="#ffffff" style="stroke-width: 2;"/><text x="727" y="302.40625" style="font-size: 16px; font-family: &quot;Andale Mono&quot;, monospace;"><tspan x="727">server</tspan></text></g><line x1="751" x2="751" y1="56" y2="278.40625" stroke="#000000" fill="none" style="stroke-width: 2;"/><g class="note"><rect x="10" y="76" width="418" height="64.40625" stroke="#000000" fill="#ffffff" style="stroke-width: 2;"/><text x="15" y="95" style="font-size: 16px; font-family: &quot;Andale Mono&quot;, monospace;"><tspan x="15">browser executing js-code:</tspan><tspan dy="1.2em" x="15">that packages a new note and push it to notes array</tspan><tspan dy="1.2em" x="15">and then redraws the notes class in document</tspan></text></g><g class="note"><rect x="42" y="160.40625" width="354" height="26" stroke="#000000" fill="#ffffff" style="stroke-width: 2;"/><text x="47" y="179.40625" style="font-size: 16px; font-family: &quot;Andale Mono&quot;, monospace;"><tspan x="47">browser convert the new note to JSON string</tspan></text></g><g class="signal"><text x="229" y="217.40625" style="font-size: 16px; font-family: &quot;Andale Mono&quot;, monospace;"><tspan x="229">HTTP POST https://studies.cs.helsinki.fi/exampleapp/new_note_spa</tspan></text><line x1="219" x2="751" y1="222.40625" y2="222.40625" stroke="#000000" fill="none" style="stroke-width: 2; marker-end: url(&quot;#markerArrowBlock&quot;);"/></g><g class="signal"><text x="337" y="253.40625" style="font-size: 16px; font-family: &quot;Andale Mono&quot;, monospace;"><tspan x="337">return 201 with message: note created</tspan></text><line x1="751" x2="219" y1="258.40625" y2="258.40625" stroke="#000000" fill="none" style="stroke-width: 2; stroke-dasharray: 6, 2; marker-end: url(&quot;#markerArrowBlock&quot;);"/></g></svg>